HIERARCHY
ROOT node
{
	OFFSET 0 0 0
	CHANNELS 6 Xposition Yposition Zposition Xrotation Yrotation Zrotation
}
MOTION
Frames: 4
Frame Time: 0.125
0 0 -0.5 0 0 0
0 0 -0.5 0 90 0
0 0 -0.5 0 180 0
0 0 -0.5 0 270 0
